<?xml version="1.0" standalone="no"?>
<!DOCTYPE svg PUBLIC "-//W3C//DTD SVG 20010904//EN"
 "http://www.w3.org/TR/2001/REC-SVG-20010904/DTD/svg10.dtd">
<svg version="1.0" xmlns="http://www.w3.org/2000/svg"
 width="682.000000pt" height="385.000000pt" viewBox="0 0 682.000000 385.000000"
 preserveAspectRatio="xMidYMid meet">
<metadata>
Created by potrace 1.16, written by Peter Selinger 2001-2019
</metadata>
<g transform="translate(0.000000,385.000000) scale(0.100000,-0.100000)"
fill="#000000" stroke="none">
<path d="M6369 3789 c-85 -11 -249 -44 -319 -65 -30 -9 -79 -22 -108 -29 -121
-30 -400 -147 -416 -174 -5 -8 7 -6 31 4 21 9 45 19 53 22 8 4 21 11 29 17 7
5 19 11 27 12 7 1 44 16 81 33 97 43 311 106 428 126 55 9 123 21 150 28 32 7
132 11 273 10 211 -1 277 7 176 21 -64 8 -324 5 -405 -5z"/>
<path d="M980 3728 c213 -93 372 -195 478 -307 65 -70 133 -169 194 -286 26
-49 48 -85 48 -79 0 21 -97 202 -150 279 -108 155 -305 304 -498 376 -74 28
-124 39 -72 17z"/>
<path d="M4050 3393 c-30 -155 -128 -392 -200 -483 -17 -21 -30 -41 -30 -46 0
-11 62 63 87 105 47 80 101 180 108 202 4 13 17 37 28 53 12 16 22 48 23 70 2
23 3 43 4 46 0 3 5 -2 10 -10 8 -13 10 -13 10 2 0 9 -5 18 -10 20 -7 2 -7 14
-1 36 7 21 6 32 -1 32 -6 0 -6 6 2 15 10 12 10 15 -3 15 -11 0 -19 -17 -27
-57z"/>
<path d="M457 3072 c-15 -9 -27 -20 -27 -24 0 -5 -9 -8 -19 -8 -11 0 -22 -9
-26 -20 -3 -10 -23 -51 -45 -89 l-38 -70 4 -105 c2 -59 9 -119 17 -138 19 -44
92 -131 119 -141 15 -5 8 7 -24 41 -25 27 -54 64 -63 83 -22 41 -30 151 -16
199 6 19 15 54 21 77 6 25 32 70 65 110 29 37 52 70 49 74 -2 4 2 9 8 12 7 2
11 7 8 10 -3 3 -18 -2 -33 -11z"/>
<path d="M970 3027 c0 -4 15 -30 33 -59 43 -68 47 -80 57 -157 19 -146 -36
-279 -152 -371 -62 -49 -62 -63 -1 -31 83 42 168 169 180 270 8 74 -14 196
-49 263 -27 50 -68 102 -68 85z"/>
<path d="M6680 2865 c-13 -3 -176 -26 -205 -30 -5 -1 -17 -4 -25 -7 -8 -3 -55
-18 -105 -33 -49 -14 -115 -37 -146 -50 -31 -14 -66 -25 -78 -25 -12 0 -19 -4
-16 -10 5 -8 -9 -15 -17 -8 -4 3 -101 -63 -108 -72 -3 -4 -20 -15 -37 -24 -18
-9 -33 -21 -33 -26 0 -6 -6 -10 -13 -10 -36 0 -316 -286 -361 -369 -5 -9 -28
-45 -51 -81 -23 -36 -59 -101 -79 -145 -20 -44 -45 -97 -56 -117 -11 -20 -20
-43 -20 -51 0 -8 -7 -32 -17 -53 -17 -40 -17 -44 -29 -131 -3 -29 -11 -53 -16
-53 -6 0 -8 -6 -5 -13 3 -8 1 -36 -4 -63 -8 -42 -20 -180 -22 -249 -1 -44 15
-223 23 -270 27 -140 61 -267 88 -327 17 -38 29 -68 26 -68 -3 0 2 -10 10 -22
9 -12 16 -32 16 -44 0 -12 4 -24 9 -26 5 -1 25 -35 44 -75 19 -40 36 -70 39
-68 2 2 13 -12 23 -33 11 -20 25 -41 32 -45 7 -4 13 -14 13 -21 0 -13 85 -117
166 -204 l40 -42 94 0 94 0 -50 53 c-203 211 -325 457 -398 803 -39 186 -52
373 -37 557 13 171 34 273 87 415 128 342 297 535 616 702 177 92 341 133 536
134 l112 0 0 103 0 103 -62 -1 c-35 -1 -70 -3 -78 -4z"/>
<path d="M6455 2534 c-11 -2 -45 -9 -75 -15 -129 -26 -362 -161 -480 -279
-165 -163 -299 -447 -340 -716 -17 -110 -14 -378 5 -510 37 -253 125 -523 218
-669 59 -93 140 -198 210 -272 l70 -73 106 0 106 0 -45 37 c-79 64 -213 207
-267 285 -160 232 -237 479 -236 763 1 283 72 511 234 756 68 101 227 269 319
336 60 44 266 163 281 163 5 0 9 5 9 10 0 6 -9 10 -20 10 -16 0 -20 7 -20 33
0 25 -3 29 -10 17 -9 -13 -12 -13 -21 3 -5 9 -16 17 -24 17 -25 0 4 48 34 55
24 7 25 8 6 15 -15 7 -16 9 -4 9 9 1 19 8 23 16 4 12 -2 15 -27 14 -18 -1 -41
-3 -52 -5z"/>
<path d="M3000 2276 c76 -23 172 -65 178 -78 2 -5 10 -8 17 -8 8 0 36 -13 62
-30 26 -16 51 -30 55 -30 18 0 183 -161 234 -227 52 -69 134 -248 137 -300 0
-7 4 -10 8 -7 4 2 8 -8 8 -23 0 -16 3 -39 6 -53 4 -14 12 -51 18 -82 6 -32 14
-58 19 -58 13 0 0 -242 -17 -300 -9 -30 -16 -63 -16 -74 0 -19 -36 -119 -70
-194 -11 -24 -38 -69 -61 -100 -52 -71 -207 -227 -270 -272 -44 -31 -65 -51
-35 -34 184 108 348 310 437 539 13 33 30 68 37 77 11 12 12 21 4 36 -7 14 -8
21 0 24 5 2 11 41 12 88 2 47 6 90 10 97 4 6 3 13 -2 15 -5 1 -11 53 -14 113
-2 61 -7 117 -9 125 -3 8 -13 42 -24 75 -89 290 -247 481 -508 614 -89 46
-228 92 -272 90 -10 0 15 -10 56 -23z"/>
<path d="M6507 2095 c-31 -13 -74 -34 -97 -46 -45 -26 -67 -17 -30 11 32 25
15 25 -33 1 -38 -19 -129 -89 -135 -104 -2 -4 -18 -15 -35 -24 -30 -15 -54
-39 -55 -56 -1 -4 -15 -19 -31 -33 -17 -14 -47 -53 -67 -87 -21 -34 -42 -68
-47 -75 -23 -29 -58 -130 -63 -177 -3 -27 -9 -51 -14 -53 -6 -2 -10 -19 -10
-37 0 -18 -4 -35 -9 -37 -16 -5 -31 -152 -31 -291 0 -89 3 -127 10 -117 8 12
10 9 10 -12 0 -15 5 -30 10 -33 6 -3 10 -15 10 -25 0 -11 7 -39 14 -62 8 -24
17 -56 20 -73 8 -43 99 -222 141 -275 19 -25 38 -52 42 -60 7 -16 27 -36 152
-152 47 -43 89 -78 93 -78 4 0 29 -13 55 -29 87 -53 173 -78 293 -85 l85 -5 1
37 c0 20 6 38 12 40 14 4 16 32 3 32 -5 0 -11 10 -13 22 -2 15 -22 31 -66 53
-77 40 -98 59 -119 104 -9 20 -27 46 -41 58 -22 19 -27 32 -30 90 -3 37 -10
72 -17 78 -41 34 -129 155 -164 226 -57 117 -75 196 -66 284 4 38 8 80 7 93 0
13 3 21 6 18 3 -4 25 30 49 75 48 90 77 129 130 171 51 40 60 35 20 -14 -121
-150 -165 -336 -121 -510 21 -80 33 -103 100 -191 76 -97 168 -169 253 -196
75 -24 91 -26 91 -11 0 6 -7 10 -15 10 -34 0 -134 43 -190 82 -83 57 -204 215
-193 250 3 7 15 -9 28 -35 64 -128 247 -265 358 -267 19 0 16 119 -4 127 -8 3
-20 1 -26 -5 -8 -8 -17 -8 -31 0 -16 8 -23 7 -34 -8 -12 -17 -13 -17 -13 3 0
32 -10 53 -26 53 -8 0 -23 6 -34 12 -17 11 -22 10 -30 -2 -5 -8 -10 -11 -10
-6 0 5 7 18 17 28 9 10 13 21 9 26 -5 4 -15 -3 -23 -15 -21 -31 -56 -14 -47
22 4 15 2 25 -5 25 -6 0 -11 7 -11 15 0 8 -8 19 -18 24 -13 7 -18 20 -17 42 1
24 -3 33 -17 37 -13 3 -18 11 -15 24 3 10 1 35 -5 54 -11 42 2 65 26 45 10 -8
16 -9 21 -1 3 5 0 10 -8 10 -22 0 -40 27 -32 47 5 10 7 25 6 35 -2 13 5 15 37
11 39 -5 39 -5 58 41 20 48 34 59 34 27 0 -28 26 -47 45 -31 19 15 20 31 2 24
-8 -3 -14 2 -14 10 0 8 5 14 10 13 6 -1 16 8 22 20 7 13 15 20 18 16 4 -3 7
-1 7 5 0 17 16 15 34 -3 8 -8 17 -11 20 -7 8 13 -43 34 -65 27 -28 -9 -23 10
6 23 28 13 33 32 8 32 -12 0 -7 9 17 30 31 28 44 34 63 31 4 0 7 10 7 24 0 16
6 25 15 25 12 0 15 19 14 115 l0 115 -79 -41 c-193 -100 -326 -224 -405 -376
-21 -40 -39 -73 -40 -73 -2 0 6 27 16 61 17 55 45 108 86 167 13 19 14 22 1
17 -9 -4 -18 1 -22 11 -9 23 4 115 16 108 5 -3 8 31 7 79 -2 82 -1 86 31 127
24 30 30 44 21 49 -8 6 1 20 29 47 69 65 72 70 76 114 2 23 11 51 19 63 31 45
7 52 -68 22z"/>
<path d="M3060 1814 c0 -4 27 -31 59 -61 123 -111 207 -300 212 -476 1 -41 2
-40 10 13 21 138 -41 306 -157 429 -36 39 -72 71 -79 71 -8 0 -21 7 -29 16 -9
8 -16 12 -16 8z"/>
<path d="M2740 1690 c8 -5 26 -10 40 -10 48 0 125 -47 200 -121 60 -60 80 -87
100 -139 32 -84 32 -189 0 -285 -20 -59 -33 -78 -103 -148 -73 -73 -76 -78
-37 -56 59 33 127 112 164 189 27 58 30 74 30 165 0 83 -4 108 -23 150 -12 28
-24 56 -25 62 -1 7 -23 37 -49 67 -51 59 -112 98 -190 121 -58 17 -131 21
-107 5z"/>
<path d="M431 879 c-131 -17 -308 -76 -398 -133 l-33 -21 0 -362 0 -363 640 0
c420 0 640 3 640 10 0 18 -5 25 -15 22 -5 -2 0 6 12 17 18 17 21 26 13 46 -5
14 -7 25 -4 25 2 0 0 10 -7 21 -7 13 -7 19 -1 15 6 -3 13 -2 17 4 3 6 -1 13
-10 17 -27 10 -62 46 -70 73 -4 14 -15 36 -24 50 -9 14 -26 43 -36 65 -11 22
-31 55 -44 73 -13 18 -21 35 -18 39 4 3 2 14 -4 24 -15 29 3 22 39 -16 19 -19
31 -38 28 -43 -6 -10 49 -128 65 -137 15 -10 10 8 -12 44 -12 20 -17 36 -11
40 6 4 4 14 -5 26 -15 19 -15 19 -8 -5 9 -29 3 -26 -15 9 -6 13 -7 21 -2 17 6
-3 12 -2 14 4 4 13 96 -104 114 -145 7 -18 18 -36 23 -40 6 -3 8 -12 4 -20 -3
-8 1 -15 8 -15 7 0 9 -3 6 -7 -4 -3 0 -15 10 -25 21 -24 52 -114 53 -155 0
-33 0 -33 49 -33 l48 0 -12 55 c-7 30 -11 55 -8 55 4 0 0 8 -9 18 -8 9 -22 44
-32 77 -10 33 -25 71 -34 85 -84 137 -143 212 -219 283 -24 22 -40 43 -37 48
3 5 -1 9 -9 9 -8 0 -24 9 -37 20 -13 11 -19 20 -15 20 5 0 17 -7 27 -17 20
-18 39 -10 20 9 -7 7 -12 16 -12 20 0 4 16 -10 35 -31 20 -22 34 -45 33 -52
-2 -7 5 -13 15 -14 10 0 24 -10 30 -22 7 -12 35 -47 62 -78 87 -99 188 -312
210 -446 l7 -39 129 0 129 0 0 29 c0 32 15 50 23 29 4 -8 6 -7 6 4 1 26 -10
48 -22 41 -7 -4 -8 4 -4 24 5 24 1 35 -19 52 -13 11 -34 21 -47 21 -18 0 -19
2 -7 10 13 9 13 11 0 21 -12 8 -10 9 8 4 18 -5 22 -2 22 14 0 12 -4 21 -10 21
-5 0 -10 -6 -10 -12 0 -10 -2 -10 -8 -1 -4 6 -16 11 -27 10 -12 -1 -20 5 -23
18 -2 16 -1 17 7 5 12 -16 14 -9 11 30 -1 14 -8 29 -16 33 -8 4 -14 13 -14 19
0 6 -7 20 -17 30 -15 17 -15 18 5 18 11 0 22 -5 24 -12 3 -9 6 -9 12 0 4 7 2
12 -3 12 -6 0 -11 6 -11 14 0 8 -8 17 -17 20 -14 6 -15 9 -4 15 7 5 10 14 6
20 -5 9 -10 9 -21 0 -11 -9 -17 -9 -29 1 -12 10 -15 10 -15 -1 -1 -10 -4 -9
-11 3 -5 9 -16 15 -23 12 -9 -4 -13 3 -13 20 0 14 -6 33 -13 42 -12 14 -14 14
-22 0 -14 -25 -39 -8 -31 22 3 14 2 23 -3 19 -5 -3 -18 1 -29 10 -20 14 -20
15 -1 28 20 15 14 21 -29 28 -11 1 -26 6 -33 11 -7 4 -19 2 -27 -4 -12 -10
-18 -10 -30 0 -8 7 -26 10 -40 8 -14 -3 -28 -1 -31 3 -3 5 -13 9 -23 9 -9 0
-35 8 -57 19 -21 10 -73 35 -115 55 -42 20 -103 45 -135 56 -59 21 -208 50
-248 50 -20 -1 -20 -2 -3 -14 21 -16 22 -26 2 -26 -9 0 -21 11 -27 25 -10 23
-16 25 -72 24 -34 -1 -90 -5 -125 -10z"/>
</g>
</svg>
